# xmcd
# Track frame offsets:
# 150
# 16681
# 38089
# 54705
# 70370
# 87440
# 102379
# 121636
# 139631
# 153514
# 168068
# 189417
# 203982
# 224974
# 242957
#
# Disc length: 3459 seconds
# Revision: 0
# Processed by: cddbd v1.5.1PL0 Copyright (c) Steve Scherf et al.
# Submitted via: VisiTrax 2.9.10.228 - For more info visit www.synapsa.com
#
DISCID=d30d810f
DTITLE=Various Artist - CB60320
DYEAR=1900
DGENRE=Karaoke
TTITLE0=Green, Pat - Guy Like Me
TTITLE1=Flatts, Rascal - Mayberry
TTITLE2=Emerson Drive - Last One Standing
TTITLE3=Currington, Billy - I Got A Feelin'
TTITLE4=Vincent, Rhonda - If Heartaches Had Wings
TTITLE5=Diffie, Joe - Tougher Than Nails
TTITLE6=Strait, George - Desperately
TTITLE7=McEntire, Reba - Somebody
TTITLE8=Brooks and Dunn - That's What She Gets For Loving Me
TTITLE9=Montgomery Gentry - If You ever Stop Loving Me
TTITLE10=Wynonna - Flies On the Butter
TTITLE11=Womack, Lee Ann - Wrong Girl, The
TTITLE12=Cagle, Chris - I'd Be Lyin'
TTITLE13=Diamond Rio - We All Fall Down
TTITLE14=Chesney, Kenny and Uncle - When The Sun Goes Down
EXTD=
EXTT0=
EXTT1=
EXTT2=
EXTT3=
EXTT4=
EXTT5=
EXTT6=
EXTT7=
EXTT8=
EXTT9=
EXTT10=
EXTT11=
EXTT12=
EXTT13=
EXTT14=
PLAYORDER=
